<svg width="20" height="24" viewBox="0 0 20 24" fill="none" xmlns="http://www.w3.org/2000/svg">
<path d="M6.25 6C6.25 3.96 7.875 2.4 10 2.4C12.125 2.4 13.75 3.96 13.75 6V8.4H16.25V6C16.25 2.64 13.5 0 10 0C6.5 0 3.75 2.64 3.75 6V8.4H6.25V6ZM11.875 15C11.875 14.04 11 13.2 10 13.2C9 13.2 8.125 14.04 8.125 15C8.125 15.48 8.375 15.96 8.75 16.32V18C8.75 18.72 9.25 19.2 10 19.2C10.75 19.2 11.25 18.72 11.25 18V16.32C11.625 15.96 11.875 15.48 11.875 15Z" fill="#F9F9F9"/>
<path d="M16.25 8.40039H3.75C1.625 8.40039 0 9.96039 0 12.0004V20.4004C0 22.4404 1.625 24.0004 3.75 24.0004H16.25C18.375 24.0004 20 22.4404 20 20.4004V12.0004C20 9.96039 18.375 8.40039 16.25 8.40039ZM11.25 16.3204V18.0004C11.25 18.7204 10.75 19.2004 10 19.2004C9.25 19.2004 8.75 18.7204 8.75 18.0004V16.3204C8.375 15.9604 8.125 15.4804 8.125 15.0004C8.125 14.0404 9 13.2004 10 13.2004C11 13.2004 11.875 14.0404 11.875 15.0004C11.875 15.4804 11.625 15.9604 11.25 16.3204Z" fill="#DE7539"/>
</svg>
