<svg width="103" height="20" viewBox="0 0 103 20" fill="none" xmlns="http://www.w3.org/2000/svg">
<g clip-path="url(#clip0_1710_14)">
<path d="M5 5C5 3.3 6.3 2 8 2C9.7 2 11 3.3 11 5V7H13V5C13 2.2 10.8 0 8 0C5.2 0 3 2.2 3 5V7H5V5ZM9.5 12.5C9.5 11.7 8.8 11 8 11C7.2 11 6.5 11.7 6.5 12.5C6.5 12.9 6.7 13.3 7 13.6V15C7 15.6 7.4 16 8 16C8.6 16 9 15.6 9 15V13.6C9.3 13.3 9.5 12.9 9.5 12.5Z" fill="#F9F9F9"/>
<path d="M13 7H3C1.3 7 0 8.3 0 10V17C0 18.7 1.3 20 3 20H13C14.7 20 16 18.7 16 17V10C16 8.3 14.7 7 13 7ZM9 13.6V15C9 15.6 8.6 16 8 16C7.4 16 7 15.6 7 15V13.6C6.7 13.3 6.5 12.9 6.5 12.5C6.5 11.7 7.2 11 8 11C8.8 11 9.5 11.7 9.5 12.5C9.5 12.9 9.3 13.3 9 13.6Z" fill="#DE7539"/>
<path d="M22.7585 13.9997V5.27246H26.2017C26.8636 5.27246 27.4276 5.39888 27.8935 5.65172C28.3594 5.90172 28.7145 6.24973 28.9588 6.69575C29.206 7.13893 29.3295 7.6503 29.3295 8.22984C29.3295 8.80939 29.2045 9.32075 28.9545 9.76393C28.7045 10.2071 28.3423 10.5523 27.8679 10.7994C27.3963 11.0466 26.8253 11.1702 26.1548 11.1702H23.9602V9.69149H25.8565C26.2116 9.69149 26.5043 9.63041 26.7344 9.50825C26.9673 9.38325 27.1406 9.21138 27.2543 8.99263C27.3707 8.77104 27.429 8.51678 27.429 8.22984C27.429 7.94007 27.3707 7.68723 27.2543 7.47132C27.1406 7.25257 26.9673 7.08354 26.7344 6.96422C26.5014 6.84206 26.206 6.78098 25.848 6.78098H24.6037V13.9997H22.7585ZM31.7852 13.9997L30.0039 7.45428H31.8406L32.8548 11.852H32.9144L33.9712 7.45428H35.7738L36.8477 11.8264H36.9031L37.9002 7.45428H39.7326L37.9556 13.9997H36.0337L34.9087 9.88325H34.8278L33.7028 13.9997H31.7852ZM42.9489 14.1062C42.4517 14.1062 42.0014 13.9784 41.598 13.7227C41.1974 13.4642 40.8793 13.0849 40.6435 12.5849C40.4105 12.0821 40.294 11.4656 40.294 10.7355C40.294 9.98553 40.4148 9.36195 40.6562 8.86479C40.8977 8.36479 41.2188 7.99121 41.6193 7.74405C42.0227 7.49405 42.4645 7.36905 42.9446 7.36905C43.3111 7.36905 43.6165 7.43155 43.8608 7.55655C44.108 7.67871 44.3068 7.83212 44.4574 8.01678C44.6108 8.19859 44.7273 8.37757 44.8068 8.55371H44.8622V5.27246H46.6733V13.9997H44.8835V12.9514H44.8068C44.7216 13.1332 44.6009 13.3136 44.4446 13.4926C44.2912 13.6687 44.0909 13.815 43.8438 13.9315C43.5994 14.048 43.3011 14.1062 42.9489 14.1062ZM43.5241 12.6616C43.8168 12.6616 44.0639 12.5821 44.2656 12.423C44.4702 12.2611 44.6264 12.0352 44.7344 11.7454C44.8452 11.4557 44.9006 11.1162 44.9006 10.727C44.9006 10.3378 44.8466 9.99973 44.7386 9.7128C44.6307 9.42587 44.4744 9.20428 44.2699 9.04803C44.0653 8.89178 43.8168 8.81365 43.5241 8.81365C43.2259 8.81365 42.9744 8.89462 42.7699 9.05655C42.5653 9.21848 42.4105 9.44291 42.3054 9.72984C42.2003 10.0167 42.1477 10.3491 42.1477 10.727C42.1477 11.1077 42.2003 11.4443 42.3054 11.7369C42.4134 12.0267 42.5682 12.254 42.7699 12.4187C42.9744 12.5807 43.2259 12.6616 43.5241 12.6616ZM50.9773 5.27246H53.2528L55.6562 11.1361H55.7585L58.1619 5.27246H60.4375V13.9997H58.6477V8.31933H58.5753L56.3168 13.9571H55.098L52.8395 8.29803H52.767V13.9997H50.9773V5.27246ZM63.7901 14.1233C63.3725 14.1233 63.0004 14.0508 62.6737 13.9059C62.3469 13.7582 62.0884 13.5409 61.8981 13.254C61.7106 12.9642 61.6168 12.6034 61.6168 12.1716C61.6168 11.8079 61.6836 11.5025 61.8171 11.2554C61.9506 11.0082 62.1325 10.8094 62.3626 10.6588C62.5927 10.5082 62.854 10.3946 63.1467 10.3179C63.4421 10.2412 63.7518 10.1872 64.0756 10.1559C64.4563 10.1162 64.7631 10.0792 64.9961 10.0452C65.229 10.0082 65.3981 9.95428 65.5032 9.88325C65.6083 9.81223 65.6609 9.70712 65.6609 9.56791V9.54234C65.6609 9.27246 65.5756 9.06365 65.4052 8.91592C65.2376 8.7682 64.9989 8.69433 64.6893 8.69433C64.3626 8.69433 64.1026 8.76678 63.9094 8.91166C63.7163 9.05371 63.5884 9.23268 63.5259 9.44859L61.8469 9.31223C61.9322 8.9145 62.0998 8.57075 62.3498 8.28098C62.5998 7.98837 62.9222 7.76393 63.3171 7.60768C63.7148 7.44859 64.1751 7.36905 64.6978 7.36905C65.0614 7.36905 65.4094 7.41166 65.7418 7.49689C66.0771 7.58212 66.3739 7.71422 66.6325 7.8932C66.8938 8.07217 67.0998 8.30229 67.2504 8.58354C67.4009 8.86195 67.4762 9.19575 67.4762 9.58496V13.9997H65.7546V13.092H65.7035C65.5984 13.2966 65.4577 13.477 65.2816 13.6332C65.1055 13.7866 64.8938 13.9074 64.6467 13.9954C64.3995 14.0807 64.114 14.1233 63.7901 14.1233ZM64.31 12.8704C64.5771 12.8704 64.8129 12.8179 65.0174 12.7128C65.2219 12.6048 65.3825 12.4599 65.4989 12.2781C65.6154 12.0963 65.6737 11.8903 65.6737 11.6602V10.9656C65.6168 11.0025 65.5387 11.0366 65.4393 11.0679C65.3427 11.0963 65.2333 11.1233 65.1112 11.1488C64.989 11.1716 64.8668 11.1929 64.7447 11.2128C64.6225 11.2298 64.5117 11.2454 64.4123 11.2596C64.1992 11.2909 64.0131 11.3406 63.854 11.4088C63.695 11.477 63.5714 11.5693 63.4833 11.6858C63.3952 11.7994 63.3512 11.9415 63.3512 12.1119C63.3512 12.3591 63.4407 12.548 63.6197 12.6787C63.8015 12.8065 64.0316 12.8704 64.31 12.8704ZM70.6999 10.2156V13.9997H68.8846V7.45428H70.6147V8.60911H70.6914C70.8363 8.22842 71.0792 7.92729 71.4201 7.7057C71.761 7.48126 72.1744 7.36905 72.6602 7.36905C73.1147 7.36905 73.511 7.46848 73.8491 7.66734C74.1871 7.86621 74.4499 8.1503 74.6374 8.51962C74.8249 8.88609 74.9187 9.32359 74.9187 9.83212V13.9997H73.1033V10.1559C73.1062 9.75541 73.0039 9.44291 72.7965 9.21848C72.5891 8.99121 72.3036 8.87757 71.94 8.87757C71.6957 8.87757 71.4798 8.93013 71.2923 9.03524C71.1076 9.14035 70.9627 9.29376 70.8576 9.49547C70.7553 9.69433 70.7028 9.93439 70.6999 10.2156ZM78.2159 14.1233C77.7983 14.1233 77.4261 14.0508 77.0994 13.9059C76.7727 13.7582 76.5142 13.5409 76.3239 13.254C76.1364 12.9642 76.0426 12.6034 76.0426 12.1716C76.0426 11.8079 76.1094 11.5025 76.2429 11.2554C76.3764 11.0082 76.5582 10.8094 76.7884 10.6588C77.0185 10.5082 77.2798 10.3946 77.5724 10.3179C77.8679 10.2412 78.1776 10.1872 78.5014 10.1559C78.8821 10.1162 79.1889 10.0792 79.4219 10.0452C79.6548 10.0082 79.8239 9.95428 79.929 9.88325C80.0341 9.81223 80.0866 9.70712 80.0866 9.56791V9.54234C80.0866 9.27246 80.0014 9.06365 79.831 8.91592C79.6634 8.7682 79.4247 8.69433 79.1151 8.69433C78.7884 8.69433 78.5284 8.76678 78.3352 8.91166C78.142 9.05371 78.0142 9.23268 77.9517 9.44859L76.2727 9.31223C76.358 8.9145 76.5256 8.57075 76.7756 8.28098C77.0256 7.98837 77.348 7.76393 77.7429 7.60768C78.1406 7.44859 78.6009 7.36905 79.1236 7.36905C79.4872 7.36905 79.8352 7.41166 80.1676 7.49689C80.5028 7.58212 80.7997 7.71422 81.0582 7.8932C81.3196 8.07217 81.5256 8.30229 81.6761 8.58354C81.8267 8.86195 81.902 9.19575 81.902 9.58496V13.9997H80.1804V13.092H80.1293C80.0241 13.2966 79.8835 13.477 79.7074 13.6332C79.5312 13.7866 79.3196 13.9074 79.0724 13.9954C78.8253 14.0807 78.5398 14.1233 78.2159 14.1233ZM78.7358 12.8704C79.0028 12.8704 79.2386 12.8179 79.4432 12.7128C79.6477 12.6048 79.8082 12.4599 79.9247 12.2781C80.0412 12.0963 80.0994 11.8903 80.0994 11.6602V10.9656C80.0426 11.0025 79.9645 11.0366 79.8651 11.0679C79.7685 11.0963 79.6591 11.1233 79.5369 11.1488C79.4148 11.1716 79.2926 11.1929 79.1705 11.2128C79.0483 11.2298 78.9375 11.2454 78.8381 11.2596C78.625 11.2909 78.4389 11.3406 78.2798 11.4088C78.1207 11.477 77.9972 11.5693 77.9091 11.6858C77.821 11.7994 77.777 11.9415 77.777 12.1119C77.777 12.3591 77.8665 12.548 78.0455 12.6787C78.2273 12.8065 78.4574 12.8704 78.7358 12.8704ZM86.2592 16.5906C85.6712 16.5906 85.1669 16.5096 84.7464 16.3477C84.3288 16.1886 83.9964 15.9713 83.7493 15.6957C83.5021 15.4202 83.3416 15.1105 83.2678 14.7667L84.9467 14.5409C84.9979 14.6716 85.0788 14.7937 85.1896 14.9074C85.3004 15.021 85.4467 15.1119 85.6286 15.1801C85.8132 15.2511 86.0376 15.2866 86.3018 15.2866C86.6967 15.2866 87.022 15.19 87.2777 14.9969C87.5362 14.8065 87.6655 14.4869 87.6655 14.0381V12.8406H87.5888C87.5092 13.0224 87.3899 13.1943 87.2308 13.3562C87.0717 13.5182 86.8672 13.6503 86.6172 13.7525C86.3672 13.8548 86.0689 13.9059 85.7223 13.9059C85.2308 13.9059 84.7834 13.7923 84.38 13.565C83.9794 13.3349 83.6598 12.9841 83.4212 12.5125C83.1854 12.0381 83.0675 11.4386 83.0675 10.7142C83.0675 9.97274 83.1882 9.35342 83.4297 8.85626C83.6712 8.3591 83.9922 7.98695 84.3928 7.73979C84.7962 7.49263 85.2379 7.36905 85.718 7.36905C86.0845 7.36905 86.3913 7.43155 86.6385 7.55655C86.8857 7.67871 87.0845 7.83212 87.2351 8.01678C87.3885 8.19859 87.5064 8.37757 87.5888 8.55371H87.657V7.45428H89.4595V14.0636C89.4595 14.6204 89.3232 15.0863 89.0504 15.4613C88.7777 15.8363 88.3999 16.1176 87.9169 16.3051C87.4368 16.4954 86.8842 16.5906 86.2592 16.5906ZM86.2976 12.5423C86.5902 12.5423 86.8374 12.4699 87.0391 12.325C87.2436 12.1773 87.3999 11.967 87.5078 11.6943C87.6186 11.4187 87.674 11.0892 87.674 10.7057C87.674 10.3221 87.62 9.98979 87.5121 9.70854C87.4041 9.42445 87.2479 9.20428 87.0433 9.04803C86.8388 8.89178 86.5902 8.81365 86.2976 8.81365C85.9993 8.81365 85.7479 8.89462 85.5433 9.05655C85.3388 9.21564 85.1839 9.43723 85.0788 9.72132C84.9737 10.0054 84.9212 10.3335 84.9212 10.7057C84.9212 11.0835 84.9737 11.4102 85.0788 11.6858C85.1868 11.9585 85.3416 12.1702 85.5433 12.3207C85.7479 12.4684 85.9993 12.5423 86.2976 12.5423ZM93.8871 14.1275C93.2138 14.1275 92.6342 13.9912 92.1484 13.7185C91.6655 13.4429 91.2933 13.0537 91.032 12.5508C90.7706 12.0452 90.6399 11.4471 90.6399 10.7568C90.6399 10.0835 90.7706 9.49263 91.032 8.98411C91.2933 8.47558 91.6612 8.07928 92.1357 7.79518C92.6129 7.51109 93.1726 7.36905 93.8146 7.36905C94.2464 7.36905 94.6484 7.43865 95.0206 7.57785C95.3956 7.71422 95.7223 7.92018 96.0007 8.19575C96.282 8.47132 96.5007 8.81791 96.657 9.23553C96.8132 9.6503 96.8913 10.1361 96.8913 10.6929V11.1915H91.3643V10.0665H95.1825C95.1825 9.80513 95.1257 9.57359 95.0121 9.37189C94.8984 9.17018 94.7408 9.01251 94.5391 8.89888C94.3402 8.7824 94.1087 8.72416 93.8445 8.72416C93.5689 8.72416 93.3246 8.78808 93.1115 8.91592C92.9013 9.04092 92.7365 9.20996 92.6172 9.42303C92.4979 9.63325 92.4368 9.86763 92.4339 10.1261V11.1957C92.4339 11.5196 92.4936 11.7994 92.6129 12.0352C92.7351 12.271 92.907 12.4528 93.1286 12.5807C93.3501 12.7085 93.6129 12.7724 93.9169 12.7724C94.1186 12.7724 94.3033 12.744 94.4709 12.6872C94.6385 12.6304 94.782 12.5452 94.9013 12.4315C95.0206 12.3179 95.1115 12.1787 95.174 12.0139L96.853 12.1247C96.7678 12.5281 96.593 12.8804 96.3288 13.1815C96.0675 13.4798 95.7294 13.7128 95.3146 13.8804C94.9027 14.0452 94.4268 14.1275 93.8871 14.1275ZM98.076 13.9997V7.45428H99.8359V8.59632H99.9041C100.023 8.19007 100.224 7.88325 100.505 7.67587C100.786 7.46564 101.11 7.36053 101.477 7.36053C101.567 7.36053 101.665 7.36621 101.771 7.37757C101.876 7.38893 101.968 7.40456 102.048 7.42445V9.03524C101.962 9.00967 101.844 8.98695 101.694 8.96706C101.543 8.94717 101.406 8.93723 101.281 8.93723C101.013 8.93723 100.775 8.99547 100.565 9.11195C100.357 9.22558 100.192 9.38467 100.07 9.58922C99.951 9.79376 99.8913 10.0295 99.8913 10.2966V13.9997H98.076Z" fill="#DE7539"/>
</g>
<defs>
<clipPath id="clip0_1710_14">
<rect width="103" height="20" fill="white"/>
</clipPath>
</defs>
</svg>
