<svg width="16" height="20" viewBox="0 0 16 20" fill="none" xmlns="http://www.w3.org/2000/svg">
<path d="M5 5C5 3.3 6.3 2 8 2C9.7 2 11 3.3 11 5V7H13V5C13 2.2 10.8 0 8 0C5.2 0 3 2.2 3 5V7H5V5ZM9.5 12.5C9.5 11.7 8.8 11 8 11C7.2 11 6.5 11.7 6.5 12.5C6.5 12.9 6.7 13.3 7 13.6V15C7 15.6 7.4 16 8 16C8.6 16 9 15.6 9 15V13.6C9.3 13.3 9.5 12.9 9.5 12.5Z" fill="#B2B1FF"/>
<path d="M13 7H3C1.3 7 0 8.3 0 10V17C0 18.7 1.3 20 3 20H13C14.7 20 16 18.7 16 17V10C16 8.3 14.7 7 13 7ZM9 13.6V15C9 15.6 8.6 16 8 16C7.4 16 7 15.6 7 15V13.6C6.7 13.3 6.5 12.9 6.5 12.5C6.5 11.7 7.2 11 8 11C8.8 11 9.5 11.7 9.5 12.5C9.5 12.9 9.3 13.3 9 13.6Z" fill="#A684FF"/>
</svg>
