<svg width="103" height="20" viewBox="0 0 103 20" fill="none" xmlns="http://www.w3.org/2000/svg">
<path d="M5 5C5 3.3 6.3 2 8 2C9.7 2 11 3.3 11 5V7H13V5C13 2.2 10.8 0 8 0C5.2 0 3 2.2 3 5V7H5V5ZM9.5 12.5C9.5 11.7 8.8 11 8 11C7.2 11 6.5 11.7 6.5 12.5C6.5 12.9 6.7 13.3 7 13.6V15C7 15.6 7.4 16 8 16C8.6 16 9 15.6 9 15V13.6C9.3 13.3 9.5 12.9 9.5 12.5Z" fill="#B2B1FF"/>
<path d="M13 7H3C1.3 7 0 8.3 0 10V17C0 18.7 1.3 20 3 20H13C14.7 20 16 18.7 16 17V10C16 8.3 14.7 7 13 7ZM9 13.6V15C9 15.6 8.6 16 8 16C7.4 16 7 15.6 7 15V13.6C6.7 13.3 6.5 12.9 6.5 12.5C6.5 11.7 7.2 11 8 11C8.8 11 9.5 11.7 9.5 12.5C9.5 12.9 9.3 13.3 9 13.6Z" fill="#A684FF"/>
<path d="M22.7585 14V5.27273H26.2017C26.8636 5.27273 27.4276 5.39915 27.8935 5.65199C28.3594 5.90199 28.7145 6.25 28.9588 6.69602C29.206 7.1392 29.3295 7.65057 29.3295 8.23011C29.3295 8.80966 29.2045 9.32102 28.9545 9.7642C28.7045 10.2074 28.3423 10.5526 27.8679 10.7997C27.3963 11.0469 26.8253 11.1705 26.1548 11.1705H23.9602V9.69176H25.8565C26.2116 9.69176 26.5043 9.63068 26.7344 9.50852C26.9673 9.38352 27.1406 9.21165 27.2543 8.9929C27.3707 8.77131 27.429 8.51705 27.429 8.23011C27.429 7.94034 27.3707 7.6875 27.2543 7.47159C27.1406 7.25284 26.9673 7.08381 26.7344 6.96449C26.5014 6.84233 26.206 6.78125 25.848 6.78125H24.6037V14H22.7585ZM31.7852 14L30.0039 7.45455H31.8406L32.8548 11.8523H32.9144L33.9712 7.45455H35.7738L36.8477 11.8267H36.9031L37.9002 7.45455H39.7326L37.9556 14H36.0337L34.9087 9.88352H34.8278L33.7028 14H31.7852ZM42.9489 14.1065C42.4517 14.1065 42.0014 13.9787 41.598 13.723C41.1974 13.4645 40.8793 13.0852 40.6435 12.5852C40.4105 12.0824 40.294 11.4659 40.294 10.7358C40.294 9.9858 40.4148 9.36222 40.6562 8.86506C40.8977 8.36506 41.2188 7.99148 41.6193 7.74432C42.0227 7.49432 42.4645 7.36932 42.9446 7.36932C43.3111 7.36932 43.6165 7.43182 43.8608 7.55682C44.108 7.67898 44.3068 7.83239 44.4574 8.01705C44.6108 8.19886 44.7273 8.37784 44.8068 8.55398H44.8622V5.27273H46.6733V14H44.8835V12.9517H44.8068C44.7216 13.1335 44.6009 13.3139 44.4446 13.4929C44.2912 13.669 44.0909 13.8153 43.8438 13.9318C43.5994 14.0483 43.3011 14.1065 42.9489 14.1065ZM43.5241 12.6619C43.8168 12.6619 44.0639 12.5824 44.2656 12.4233C44.4702 12.2614 44.6264 12.0355 44.7344 11.7457C44.8452 11.456 44.9006 11.1165 44.9006 10.7273C44.9006 10.3381 44.8466 10 44.7386 9.71307C44.6307 9.42614 44.4744 9.20455 44.2699 9.0483C44.0653 8.89205 43.8168 8.81392 43.5241 8.81392C43.2259 8.81392 42.9744 8.89489 42.7699 9.05682C42.5653 9.21875 42.4105 9.44318 42.3054 9.73011C42.2003 10.017 42.1477 10.3494 42.1477 10.7273C42.1477 11.108 42.2003 11.4446 42.3054 11.7372C42.4134 12.027 42.5682 12.2543 42.7699 12.419C42.9744 12.581 43.2259 12.6619 43.5241 12.6619ZM50.9773 5.27273H53.2528L55.6562 11.1364H55.7585L58.1619 5.27273H60.4375V14H58.6477V8.3196H58.5753L56.3168 13.9574H55.098L52.8395 8.2983H52.767V14H50.9773V5.27273ZM63.7901 14.1236C63.3725 14.1236 63.0004 14.0511 62.6737 13.9062C62.3469 13.7585 62.0884 13.5412 61.8981 13.2543C61.7106 12.9645 61.6168 12.6037 61.6168 12.1719C61.6168 11.8082 61.6836 11.5028 61.8171 11.2557C61.9506 11.0085 62.1325 10.8097 62.3626 10.6591C62.5927 10.5085 62.854 10.3949 63.1467 10.3182C63.4421 10.2415 63.7518 10.1875 64.0756 10.1562C64.4563 10.1165 64.7631 10.0795 64.9961 10.0455C65.229 10.0085 65.3981 9.95455 65.5032 9.88352C65.6083 9.8125 65.6609 9.70739 65.6609 9.56818V9.54261C65.6609 9.27273 65.5756 9.06392 65.4052 8.91619C65.2376 8.76847 64.9989 8.6946 64.6893 8.6946C64.3626 8.6946 64.1026 8.76705 63.9094 8.91193C63.7163 9.05398 63.5884 9.23295 63.5259 9.44886L61.8469 9.3125C61.9322 8.91477 62.0998 8.57102 62.3498 8.28125C62.5998 7.98864 62.9222 7.7642 63.3171 7.60795C63.7148 7.44886 64.1751 7.36932 64.6978 7.36932C65.0614 7.36932 65.4094 7.41193 65.7418 7.49716C66.0771 7.58239 66.3739 7.71449 66.6325 7.89347C66.8938 8.07244 67.0998 8.30256 67.2504 8.58381C67.4009 8.86222 67.4762 9.19602 67.4762 9.58523V14H65.7546V13.0923H65.7035C65.5984 13.2969 65.4577 13.4773 65.2816 13.6335C65.1055 13.7869 64.8938 13.9077 64.6467 13.9957C64.3995 14.081 64.114 14.1236 63.7901 14.1236ZM64.31 12.8707C64.5771 12.8707 64.8129 12.8182 65.0174 12.7131C65.2219 12.6051 65.3825 12.4602 65.4989 12.2784C65.6154 12.0966 65.6737 11.8906 65.6737 11.6605V10.9659C65.6168 11.0028 65.5387 11.0369 65.4393 11.0682C65.3427 11.0966 65.2333 11.1236 65.1112 11.1491C64.989 11.1719 64.8668 11.1932 64.7447 11.2131C64.6225 11.2301 64.5117 11.2457 64.4123 11.2599C64.1992 11.2912 64.0131 11.3409 63.854 11.4091C63.695 11.4773 63.5714 11.5696 63.4833 11.6861C63.3952 11.7997 63.3512 11.9418 63.3512 12.1122C63.3512 12.3594 63.4407 12.5483 63.6197 12.679C63.8015 12.8068 64.0316 12.8707 64.31 12.8707ZM70.6999 10.2159V14H68.8846V7.45455H70.6147V8.60938H70.6914C70.8363 8.22869 71.0792 7.92756 71.4201 7.70597C71.761 7.48153 72.1744 7.36932 72.6602 7.36932C73.1147 7.36932 73.511 7.46875 73.8491 7.66761C74.1871 7.86648 74.4499 8.15057 74.6374 8.51989C74.8249 8.88636 74.9187 9.32386 74.9187 9.83239V14H73.1033V10.1562C73.1062 9.75568 73.0039 9.44318 72.7965 9.21875C72.5891 8.99148 72.3036 8.87784 71.94 8.87784C71.6957 8.87784 71.4798 8.9304 71.2923 9.03551C71.1076 9.14062 70.9627 9.29403 70.8576 9.49574C70.7553 9.6946 70.7028 9.93466 70.6999 10.2159ZM78.2159 14.1236C77.7983 14.1236 77.4261 14.0511 77.0994 13.9062C76.7727 13.7585 76.5142 13.5412 76.3239 13.2543C76.1364 12.9645 76.0426 12.6037 76.0426 12.1719C76.0426 11.8082 76.1094 11.5028 76.2429 11.2557C76.3764 11.0085 76.5582 10.8097 76.7884 10.6591C77.0185 10.5085 77.2798 10.3949 77.5724 10.3182C77.8679 10.2415 78.1776 10.1875 78.5014 10.1562C78.8821 10.1165 79.1889 10.0795 79.4219 10.0455C79.6548 10.0085 79.8239 9.95455 79.929 9.88352C80.0341 9.8125 80.0866 9.70739 80.0866 9.56818V9.54261C80.0866 9.27273 80.0014 9.06392 79.831 8.91619C79.6634 8.76847 79.4247 8.6946 79.1151 8.6946C78.7884 8.6946 78.5284 8.76705 78.3352 8.91193C78.142 9.05398 78.0142 9.23295 77.9517 9.44886L76.2727 9.3125C76.358 8.91477 76.5256 8.57102 76.7756 8.28125C77.0256 7.98864 77.348 7.7642 77.7429 7.60795C78.1406 7.44886 78.6009 7.36932 79.1236 7.36932C79.4872 7.36932 79.8352 7.41193 80.1676 7.49716C80.5028 7.58239 80.7997 7.71449 81.0582 7.89347C81.3196 8.07244 81.5256 8.30256 81.6761 8.58381C81.8267 8.86222 81.902 9.19602 81.902 9.58523V14H80.1804V13.0923H80.1293C80.0241 13.2969 79.8835 13.4773 79.7074 13.6335C79.5312 13.7869 79.3196 13.9077 79.0724 13.9957C78.8253 14.081 78.5398 14.1236 78.2159 14.1236ZM78.7358 12.8707C79.0028 12.8707 79.2386 12.8182 79.4432 12.7131C79.6477 12.6051 79.8082 12.4602 79.9247 12.2784C80.0412 12.0966 80.0994 11.8906 80.0994 11.6605V10.9659C80.0426 11.0028 79.9645 11.0369 79.8651 11.0682C79.7685 11.0966 79.6591 11.1236 79.5369 11.1491C79.4148 11.1719 79.2926 11.1932 79.1705 11.2131C79.0483 11.2301 78.9375 11.2457 78.8381 11.2599C78.625 11.2912 78.4389 11.3409 78.2798 11.4091C78.1207 11.4773 77.9972 11.5696 77.9091 11.6861C77.821 11.7997 77.777 11.9418 77.777 12.1122C77.777 12.3594 77.8665 12.5483 78.0455 12.679C78.2273 12.8068 78.4574 12.8707 78.7358 12.8707ZM86.2592 16.5909C85.6712 16.5909 85.1669 16.5099 84.7464 16.348C84.3288 16.1889 83.9964 15.9716 83.7493 15.696C83.5021 15.4205 83.3416 15.1108 83.2678 14.767L84.9467 14.5412C84.9979 14.6719 85.0788 14.794 85.1896 14.9077C85.3004 15.0213 85.4467 15.1122 85.6286 15.1804C85.8132 15.2514 86.0376 15.2869 86.3018 15.2869C86.6967 15.2869 87.022 15.1903 87.2777 14.9972C87.5362 14.8068 87.6655 14.4872 87.6655 14.0384V12.8409H87.5888C87.5092 13.0227 87.3899 13.1946 87.2308 13.3565C87.0717 13.5185 86.8672 13.6506 86.6172 13.7528C86.3672 13.8551 86.0689 13.9062 85.7223 13.9062C85.2308 13.9062 84.7834 13.7926 84.38 13.5653C83.9794 13.3352 83.6598 12.9844 83.4212 12.5128C83.1854 12.0384 83.0675 11.4389 83.0675 10.7145C83.0675 9.97301 83.1882 9.35369 83.4297 8.85653C83.6712 8.35937 83.9922 7.98722 84.3928 7.74006C84.7962 7.4929 85.2379 7.36932 85.718 7.36932C86.0845 7.36932 86.3913 7.43182 86.6385 7.55682C86.8857 7.67898 87.0845 7.83239 87.2351 8.01705C87.3885 8.19886 87.5064 8.37784 87.5888 8.55398H87.657V7.45455H89.4595V14.0639C89.4595 14.6207 89.3232 15.0866 89.0504 15.4616C88.7777 15.8366 88.3999 16.1179 87.9169 16.3054C87.4368 16.4957 86.8842 16.5909 86.2592 16.5909ZM86.2976 12.5426C86.5902 12.5426 86.8374 12.4702 87.0391 12.3253C87.2436 12.1776 87.3999 11.9673 87.5078 11.6946C87.6186 11.419 87.674 11.0895 87.674 10.706C87.674 10.3224 87.62 9.99006 87.5121 9.70881C87.4041 9.42472 87.2479 9.20455 87.0433 9.0483C86.8388 8.89205 86.5902 8.81392 86.2976 8.81392C85.9993 8.81392 85.7479 8.89489 85.5433 9.05682C85.3388 9.21591 85.1839 9.4375 85.0788 9.72159C84.9737 10.0057 84.9212 10.3338 84.9212 10.706C84.9212 11.0838 84.9737 11.4105 85.0788 11.6861C85.1868 11.9588 85.3416 12.1705 85.5433 12.321C85.7479 12.4687 85.9993 12.5426 86.2976 12.5426ZM93.8871 14.1278C93.2138 14.1278 92.6342 13.9915 92.1484 13.7188C91.6655 13.4432 91.2933 13.054 91.032 12.5511C90.7706 12.0455 90.6399 11.4474 90.6399 10.7571C90.6399 10.0838 90.7706 9.4929 91.032 8.98438C91.2933 8.47585 91.6612 8.07955 92.1357 7.79545C92.6129 7.51136 93.1726 7.36932 93.8146 7.36932C94.2464 7.36932 94.6484 7.43892 95.0206 7.57812C95.3956 7.71449 95.7223 7.92045 96.0007 8.19602C96.282 8.47159 96.5007 8.81818 96.657 9.2358C96.8132 9.65057 96.8913 10.1364 96.8913 10.6932V11.1918H91.3643V10.0668H95.1825C95.1825 9.8054 95.1257 9.57386 95.0121 9.37216C94.8984 9.17045 94.7408 9.01278 94.5391 8.89915C94.3402 8.78267 94.1087 8.72443 93.8445 8.72443C93.5689 8.72443 93.3246 8.78835 93.1115 8.91619C92.9013 9.04119 92.7365 9.21023 92.6172 9.4233C92.4979 9.63352 92.4368 9.8679 92.4339 10.1264V11.196C92.4339 11.5199 92.4936 11.7997 92.6129 12.0355C92.7351 12.2713 92.907 12.4531 93.1286 12.581C93.3501 12.7088 93.6129 12.7727 93.9169 12.7727C94.1186 12.7727 94.3033 12.7443 94.4709 12.6875C94.6385 12.6307 94.782 12.5455 94.9013 12.4318C95.0206 12.3182 95.1115 12.179 95.174 12.0142L96.853 12.125C96.7678 12.5284 96.593 12.8807 96.3288 13.1818C96.0675 13.4801 95.7294 13.7131 95.3146 13.8807C94.9027 14.0455 94.4268 14.1278 93.8871 14.1278ZM98.076 14V7.45455H99.8359V8.59659H99.9041C100.023 8.19034 100.224 7.88352 100.505 7.67614C100.786 7.46591 101.11 7.3608 101.477 7.3608C101.567 7.3608 101.665 7.36648 101.771 7.37784C101.876 7.3892 101.968 7.40483 102.048 7.42472V9.03551C101.962 9.00994 101.844 8.98722 101.694 8.96733C101.543 8.94744 101.406 8.9375 101.281 8.9375C101.013 8.9375 100.775 8.99574 100.565 9.11222C100.357 9.22585 100.192 9.38494 100.07 9.58949C99.951 9.79403 99.8913 10.0298 99.8913 10.2969V14H98.076Z" fill="#A684FF"/>
</svg>
